<svg xmlns="http://www.w3.org/2000/svg" viewBox="0 0 582 72" >
  <path fill="#fff" d="M-1-1h584v74H-1z"/>
  <g>
    <g fill-rule="nonzero" fill="#000" stroke="null">
      <path d="M140.283 4.649L92.33 52.406C84.652 32.14 63.627 20.138 42.188 23.783 20.748 27.428 4.912 45.696 4.419 67.35h15.876c.553-15.461 13.024-27.86 28.55-28.384 15.525-.524 28.81 11.007 30.41 26.396l-.154.186.197.09c.054.601.102 1.18.118 1.712h20.099l51.984-51.655L140.283 4.65zM205.134 34.328h-9.558V20.673h9.558c2.828 0 4.958.525 6.39 1.578 1.435 1.05 2.15 2.763 2.15 5.133 0 4.63-2.848 6.944-8.54 6.944zm5.77 4.362c2.49-.805 4.466-2.144 5.938-4.016 1.468-1.875 2.205-4.305 2.205-7.29 0-3.975-1.285-6.95-3.847-8.918-2.562-1.971-5.823-2.955-9.78-2.955h-13.688c-.416 0-.773.153-1.074.458a1.485 1.485 0 0 0-.453 1.09v37.062c0 .422.148.784.453 1.09.301.306.658.459 1.074.459h2.317a1.45 1.45 0 0 0 1.075-.459c.301-.306.452-.668.452-1.09V39.49h9.728l8.202 14.63c.566 1.034 1.376 1.549 2.43 1.549h2.432c.341 0 .63-.123.878-.372.243-.25.367-.546.367-.891 0-.19-.059-.403-.173-.629l-8.536-15.088zM260.44 40.41c-.11 3.52-1.094 6.175-2.938 7.974-1.848 1.798-4.28 2.696-7.298 2.696-3.014 0-5.445-.898-7.297-2.696-1.844-1.799-2.824-4.454-2.939-7.975a162.527 162.527 0 0 1-.056-4.82c0-2.064.02-3.67.056-4.817.115-3.52 1.095-6.176 2.94-7.974 1.85-1.799 4.282-2.696 7.296-2.696 3.018 0 5.45.897 7.298 2.696 1.844 1.798 2.827 4.454 2.939 7.974.075 2.294.114 3.9.114 4.817 0 .92-.039 2.526-.114 4.82m3.424-17.814c-1.226-2.35-3.008-4.215-5.348-5.595-2.336-1.376-5.108-2.064-8.313-2.064s-5.973.688-8.313 2.064c-2.336 1.38-4.119 3.244-5.344 5.595-1.226 2.353-1.874 4.983-1.95 7.89a175.441 175.441 0 0 0-.055 5.103c0 2.258.02 3.96.055 5.106.112 2.909.784 5.538 2.009 7.888 1.225 2.354 2.998 4.219 5.315 5.595 2.32 1.38 5.079 2.068 8.283 2.068s5.967-.689 8.284-2.068c2.32-1.376 4.093-3.241 5.318-5.595 1.226-2.35 1.894-4.98 2.009-7.888.075-2.293.114-3.995.114-5.106 0-1.107-.039-2.808-.114-5.102-.079-2.909-.728-5.538-1.95-7.891M307.49 40.41c-.112 3.52-1.092 6.175-2.94 7.974-1.848 1.798-4.28 2.696-7.297 2.696-3.015 0-5.446-.898-7.294-2.696-1.848-1.799-2.828-4.454-2.94-7.975-.038-1.147-.058-2.752-.058-4.82 0-2.064.02-3.67.059-4.817.111-3.52 1.091-6.176 2.94-7.974 1.847-1.799 4.278-2.696 7.293-2.696 3.018 0 5.449.897 7.297 2.696 1.848 1.798 2.828 4.454 2.94 7.974.075 2.294.114 3.9.114 4.817 0 .92-.04 2.526-.115 4.82m3.421-17.814c-1.225-2.35-3.005-4.215-5.344-5.595-2.336-1.376-5.108-2.064-8.313-2.064-3.205 0-5.974.688-8.313 2.064-2.337 1.38-4.12 3.244-5.345 5.595-1.225 2.353-1.874 4.983-1.95 7.89a175.441 175.441 0 0 0-.055 5.103c0 2.258.02 3.96.056 5.106.111 2.909.783 5.538 2.008 7.888 1.226 2.354 2.999 4.219 5.315 5.595 2.32 1.38 5.079 2.068 8.284 2.068 3.204 0 5.967-.689 8.287-2.068 2.316-1.376 4.089-3.241 5.314-5.595 1.226-2.35 1.894-4.98 2.009-7.888.075-2.293.111-3.995.111-5.106 0-1.107-.036-2.808-.111-5.102-.079-2.909-.727-5.538-1.953-7.891M353.695 15.51h-26.524c-.413 0-.77.153-1.072.46a1.489 1.489 0 0 0-.455 1.09v2.064c0 .422.15.784.455 1.09.302.306.659.459 1.072.459h10.577V54.12c0 .422.15.785.452 1.09.302.306.662.46 1.078.46h2.317c.416 0 .77-.154 1.075-.46.301-.305.449-.668.449-1.09V20.673h10.577c.416 0 .77-.153 1.075-.459.301-.306.452-.668.452-1.09v-2.065c0-.422-.15-.784-.452-1.09a1.461 1.461 0 0 0-1.075-.459M385.93 33.523c-3.17-.837-5.535-1.555-7.101-2.15-1.567-.592-2.733-1.3-3.503-2.124-.777-.822-1.16-1.882-1.16-3.182 0-1.911.78-3.387 2.346-4.417 1.566-1.034 3.48-1.55 5.74-1.55 2.452 0 4.421.572 5.912 1.719 1.488 1.15 2.533 2.317 3.139 3.5.262.499.508.831.73 1.004.23.173.568.26 1.02.26h2.32c.337 0 .639-.123.904-.373.262-.25.374-.545.34-.89-.078-1.377-.697-2.886-1.867-4.531-1.17-1.646-2.828-3.032-4.977-4.162-2.146-1.127-4.656-1.692-7.52-1.692-2.867 0-5.315.518-7.353 1.552-2.035 1.03-3.562 2.39-4.58 4.072a10.464 10.464 0 0 0-1.524 5.508c0 2.68.809 4.923 2.431 6.742 1.619 1.815 4.256 3.204 7.917 4.158 3.352.881 5.898 1.616 7.634 2.208 1.734.595 3.1 1.32 4.1 2.18.996.861 1.497 1.925 1.497 3.185 0 1.951-.954 3.527-2.854 4.733-1.904 1.207-4.234 1.805-6.986 1.805s-4.928-.571-6.53-1.718c-1.606-1.15-2.707-2.41-3.31-3.787-.226-.498-.472-.83-.737-1.003-.262-.173-.6-.26-1.016-.26h-2.316c-.341 0-.636.123-.879.373-.245.249-.367.545-.367.89.073 1.646.77 3.298 2.094 4.963 1.317 1.663 3.13 3.032 5.426 4.102 2.3 1.07 4.843 1.606 7.635 1.606 3.018 0 5.672-.499 7.972-1.493 2.304-.994 4.083-2.37 5.345-4.128 1.265-1.762 1.894-3.79 1.894-6.083 0-2.87-.895-5.133-2.684-6.798-1.792-1.662-4.833-3.068-9.132-4.219M438.065 15.51h-26.522c-.416 0-.773.153-1.074.46a1.489 1.489 0 0 0-.456 1.09v2.064c0 .422.151.784.456 1.09.301.306.658.459 1.074.459h10.574V54.12c0 .422.154.785.452 1.09.302.306.662.46 1.078.46h2.317c.416 0 .773-.154 1.074-.46.302-.305.45-.668.45-1.09V20.673h10.577c.416 0 .773-.153 1.074-.459s.456-.668.456-1.09v-2.065c0-.422-.154-.784-.456-1.09a1.456 1.456 0 0 0-1.074-.459M469.734 34.328h-9.558V20.673h9.558c2.827 0 4.957.525 6.39 1.578 1.434 1.05 2.149 2.763 2.149 5.133 0 4.63-2.848 6.944-8.54 6.944zm5.77 4.362c2.487-.805 4.466-2.144 5.934-4.016 1.471-1.875 2.208-4.305 2.208-7.29 0-3.975-1.284-6.95-3.847-8.918-2.565-1.971-5.822-2.955-9.783-2.955h-13.687c-.413 0-.77.153-1.072.458a1.489 1.489 0 0 0-.455 1.09v37.062c0 .422.15.784.455 1.09.302.306.659.459 1.072.459h2.32c.416 0 .773-.153 1.074-.459s.452-.668.452-1.09V39.49h9.729l8.201 14.63c.564 1.034 1.373 1.549 2.432 1.549h2.427c.341 0 .633-.123.879-.372.245-.25.367-.546.367-.891 0-.19-.056-.403-.17-.629l-8.537-15.088zM507.17 41.442l7.86-20.48 7.806 20.48H507.17zm12.1-24.037c-.488-1.263-1.337-1.895-2.543-1.895h-3.391c-1.206 0-2.058.632-2.546 1.895l-13.853 36.2c-.154.346-.226.612-.226.801 0 .346.12.645.367.891.242.25.537.372.874.372h2.094c1.13 0 1.868-.475 2.205-1.432l2.94-7.63h19.624l2.94 7.63c.34.957 1.074 1.432 2.208 1.432h2.09c.34 0 .632-.123.875-.372.249-.246.37-.545.37-.89 0-.19-.075-.456-.226-.802l-13.801-36.2h-.001zM570.003 33.094c-1.468 1.206-3.581 1.808-6.334 1.808h-10.121V20.675h10.121c5.695 0 8.54 2.333 8.54 6.997 0 2.41-.738 4.219-2.206 5.422m3.706-14.484c-2.585-2.067-5.835-3.101-9.757-3.101h-14.25c-.417 0-.774.153-1.072.462a1.487 1.487 0 0 0-.456 1.087v37.064c0 .422.151.785.456 1.09.298.306.655.46 1.071.46h2.32c.413 0 .77-.154 1.075-.46.301-.305.452-.668.452-1.09V40.064h10.403c2.527 0 4.817-.458 6.871-1.376a11.23 11.23 0 0 0 4.922-4.188c1.225-1.875 1.838-4.149 1.838-6.828 0-3.976-1.29-6.997-3.873-9.062" stroke-width=".7741"/>
    </g>
  </g>
</svg>
